screens;
 
http://baypic.net/img-5175851783bba.html 
 
http://baypic.net/img-5175851b615a6.html 
 
http://baypic.net/img-5175851edb803.html 


Format                                   : MPEG-4
Format profile                           : Base Media
Codec ID                                 : isom
File size                                : 668 MiB
Duration                                 : 15mn 11s
Overall bit rate mode                    : Variable
Overall bit rate                         : 6 150 Kbps
Writing application                      : Lavf52.31.0

Video
ID                                       : 1
Format                                   : AVC
Format/Info                              : Advanced Video Codec
Format profile                           : High@L4.0
Format settings, CABAC                   : Yes
Format settings, ReFrames                : 3 frames
Codec ID                                 : avc1
Codec ID/Info                            : Advanced Video Coding
Duration                                 : 15mn 11s
Duration_FirstFrame                      : -33ms
Bit rate                                 : 5 991 Kbps
Width                                    : 1 920 pixels
Height                                   : 1 080 pixels
Display aspect ratio                     : 16:9
Frame rate mode                          : Variable
Frame rate                               : 29.970 fps
Minimum frame rate                       : 14.985 fps
Maximum frame rate                       : 29.970 fps
Color space                              : YUV
Chroma subsampling                       : 4:2:0
Bit depth                                : 8 bits
Scan type                                : Progressive
Bits/(Pixel*Frame)                       : 0.096
Stream size                              : 651 MiB (97%)
Language                                 : English

Audio
ID                                       : 2
Format                                   : AAC
Format/Info                              : Advanced Audio Codec
Format profile                           : LC
Codec ID                                 : 40
Duration                                 : 15mn 11s
Bit rate mode                            : Variable
Bit rate                                 : 152 Kbps
Channel(s)                               : 2 channels
Channel positions                        : Front: L R
Sampling rate                            : 44.1 KHz
Compression mode                         : Lossy
Stream size                              : 16.5 MiB (2%)
Language                                 : English